<svg width="13" height="13" viewBox="0 0 13 13" fill="none" xmlns="http://www.w3.org/2000/svg">
<path d="M10.1991 7.95C10.0372 8.10688 9.9628 8.33375 9.99968 8.55625L10.5553 11.6313C10.6022 11.8919 10.4922 12.1556 10.2741 12.3063C10.0603 12.4625 9.77593 12.4813 9.5428 12.3563L6.77468 10.9125C6.67843 10.8613 6.57155 10.8338 6.46218 10.8306H6.2928C6.23405 10.8394 6.17655 10.8581 6.12405 10.8869L3.3553 12.3375C3.21843 12.4063 3.06343 12.4306 2.91155 12.4063C2.54155 12.3363 2.29468 11.9838 2.3553 11.6119L2.91155 8.53688C2.94843 8.3125 2.87405 8.08438 2.71218 7.925L0.455303 5.7375C0.266553 5.55438 0.200928 5.27938 0.287178 5.03125C0.370928 4.78375 0.584678 4.60313 0.842803 4.5625L3.94905 4.11188C4.1853 4.0875 4.3928 3.94375 4.49905 3.73125L5.8678 0.925C5.9003 0.8625 5.94218 0.805 5.9928 0.75625L6.04905 0.7125C6.07843 0.68 6.11218 0.653125 6.14968 0.63125L6.2178 0.60625L6.32405 0.5625H6.58718C6.82218 0.586875 7.02905 0.7275 7.13718 0.9375L8.52405 3.73125C8.62405 3.93563 8.81843 4.0775 9.0428 4.11188L12.1491 4.5625C12.4116 4.6 12.6309 4.78125 12.7178 5.03125C12.7997 5.28188 12.7291 5.55688 12.5366 5.7375L10.1991 7.95Z" fill="#ED4040"/>
</svg>
